<svg width="114" height="28" viewBox="0 0 114 28" fill="none" xmlns="http://www.w3.org/2000/svg">
<path d="M14.5011 0H0.572262C0.420488 0 0.274931 0.05962 0.167612 0.165744C0.0602918 0.271868 0 0.415803 0 0.565885V27.4341C0 27.5842 0.0602918 27.7281 0.167612 27.8343C0.274931 27.9404 0.420488 28 0.572262 28H14.5011C18.1848 27.8964 21.6825 26.3766 24.251 23.7634C26.8195 21.1503 28.2564 17.6498 28.2564 14.0057C28.2564 10.3615 26.8195 6.86104 24.251 4.2479C21.6825 1.63475 18.1848 0.114919 14.5011 0.011318V0ZM15.8631 23.7785C13.7556 24.1371 11.5874 23.8232 9.67244 22.8821C7.75745 21.941 6.19508 20.4216 5.21155 18.5439C4.22803 16.6662 3.8744 14.5277 4.20187 12.438C4.52935 10.3483 5.52093 8.41598 7.03304 6.92072C8.54515 5.42546 10.4993 4.44493 12.6125 4.1211C14.7257 3.79727 16.8883 4.14696 18.7872 5.11953C20.686 6.0921 22.2225 7.63706 23.1742 9.53071C24.126 11.4244 24.4435 13.5684 24.0808 15.6524C23.7278 17.6804 22.7482 19.5506 21.2767 21.0057C19.8052 22.4608 17.914 23.4295 15.8631 23.7785Z" fill="black" fill-opacity="0.85"/>
<path d="M47.3832 4.07429H51.1715C51.2352 4.05694 51.3024 4.05694 51.3661 4.07429L58.0158 23.7218C58.0158 23.869 58.0158 23.9482 57.867 23.9482H54.8683C54.8111 23.9482 54.7539 23.9482 54.7195 23.8124L53.4148 19.7606H44.602C44.5652 19.761 44.5291 19.7504 44.4985 19.7302C44.4678 19.71 44.4441 19.6812 44.4303 19.6475L43.1026 23.7105C43.1026 23.869 43.0607 23.9482 42.9767 23.9482H40.6076C40.4855 23.9482 40.4359 23.9029 40.4588 23.8124L47.2115 4.16483C47.2295 4.13617 47.2549 4.11271 47.285 4.09682C47.3152 4.08092 47.349 4.07315 47.3832 4.07429ZM45.4146 17.4065H52.5106C52.6251 17.4065 52.6632 17.3575 52.6251 17.2594L49.2831 6.90372C49.2608 6.84123 49.2187 6.78757 49.163 6.75083C49.1072 6.71409 49.0409 6.69625 48.974 6.7C48.8253 6.7 48.7337 6.7 48.6879 6.81317L45.2543 17.1576C45.2391 17.3236 45.2925 17.4065 45.4146 17.4065Z" fill="black" fill-opacity="0.85"/>
<path d="M63.5093 4.21005V23.8576C63.5111 23.8759 63.5088 23.8943 63.5025 23.9116C63.4962 23.9288 63.4862 23.9445 63.473 23.9575C63.4599 23.9705 63.4441 23.9804 63.4266 23.9866C63.4091 23.9928 63.3905 23.9952 63.372 23.9934H60.9342C60.9152 23.995 60.8961 23.9926 60.8781 23.9865C60.8601 23.9804 60.8436 23.9706 60.8296 23.9579C60.8156 23.9451 60.8044 23.9296 60.7968 23.9123C60.7892 23.8951 60.7853 23.8764 60.7854 23.8576V4.21005C60.7854 4.11951 60.7854 4.07424 60.9342 4.07424H63.3606C63.3799 4.07058 63.3998 4.07146 63.4188 4.07681C63.4377 4.08216 63.4551 4.09183 63.4696 4.10504C63.4841 4.11825 63.4952 4.13463 63.5021 4.15287C63.509 4.1711 63.5115 4.19069 63.5093 4.21005Z" fill="black" fill-opacity="0.85"/>
<path d="M75.0348 21.7299V23.8577C75.0348 23.9482 75.0348 23.9935 74.886 23.9935H72.6885C70.1935 24.0463 68.9421 22.9145 68.9345 20.5982V11.9515C68.9361 11.9327 68.9337 11.9138 68.9275 11.896C68.9213 11.8782 68.9114 11.8618 68.8985 11.848C68.8856 11.8342 68.8699 11.8231 68.8525 11.8156C68.835 11.8081 68.8162 11.8043 68.7971 11.8043H66.2449C66.2264 11.8061 66.2077 11.8038 66.1903 11.7976C66.1728 11.7914 66.1569 11.7814 66.1438 11.7684C66.1307 11.7554 66.1206 11.7398 66.1143 11.7225C66.1081 11.7052 66.1057 11.6868 66.1075 11.6685V9.82372C66.1057 9.80545 66.1081 9.78702 66.1143 9.76974C66.1206 9.75247 66.1307 9.73678 66.1438 9.7238C66.1569 9.71083 66.1728 9.70088 66.1903 9.69467C66.2077 9.68847 66.2264 9.68616 66.2449 9.68791H68.7857C68.8773 9.68791 68.923 9.68791 68.923 9.54078V5.72671C68.923 5.63617 68.923 5.5909 69.0718 5.5909H71.4982C71.5167 5.58915 71.5353 5.59146 71.5528 5.59766C71.5703 5.60387 71.5861 5.61382 71.5993 5.6268C71.6124 5.63977 71.6224 5.65546 71.6287 5.67274C71.635 5.69001 71.6373 5.70844 71.6356 5.72671V9.54078C71.634 9.55954 71.6363 9.57843 71.6425 9.59623C71.6487 9.61404 71.6586 9.63038 71.6715 9.64422C71.6844 9.65805 71.7001 9.66908 71.7176 9.6766C71.735 9.68412 71.7539 9.68797 71.7729 9.68791H74.8631C74.8821 9.68634 74.9012 9.68869 74.9192 9.69481C74.9372 9.70093 74.9537 9.71068 74.9677 9.72345C74.9817 9.73623 74.9929 9.75173 75.0005 9.76899C75.0081 9.78626 75.012 9.80489 75.0119 9.82372V11.6572C75.0119 11.7477 75.0119 11.793 74.8631 11.793H71.7729C71.6813 11.793 71.6356 11.793 71.6356 11.9401V20.1907C71.6356 21.1339 72.1506 21.6055 73.1807 21.6055H74.8517C74.989 21.5941 75.0348 21.6394 75.0348 21.7299Z" fill="black" fill-opacity="0.85"/>
<path d="M80.9635 4.21011V7.17535C80.9635 7.26589 80.9634 7.32248 80.8147 7.32248H77.7588C77.6672 7.32248 77.6214 7.32248 77.6214 7.17535V4.21011C77.6197 4.19184 77.622 4.17341 77.6283 4.15613C77.6345 4.13886 77.6446 4.12317 77.6577 4.11019C77.6708 4.09722 77.6867 4.08727 77.7042 4.08106C77.7217 4.07486 77.7403 4.07255 77.7588 4.0743H80.7574C80.9062 4.0743 80.9635 4.11957 80.9635 4.21011ZM80.6659 9.86897V23.9029C80.6676 23.9212 80.6653 23.9396 80.659 23.9569C80.6528 23.9742 80.6427 23.9899 80.6296 24.0028C80.6165 24.0158 80.6006 24.0258 80.5831 24.032C80.5656 24.0382 80.547 24.0405 80.5285 24.0387H78.0792C78.0608 24.0405 78.0421 24.0382 78.0247 24.032C78.0072 24.0258 77.9913 24.0158 77.9782 24.0028C77.9651 23.9899 77.955 23.9742 77.9487 23.9569C77.9425 23.9396 77.9401 23.9212 77.9419 23.9029V9.8237C77.9401 9.80542 77.9425 9.78699 77.9487 9.76972C77.955 9.75244 77.9651 9.73676 77.9782 9.72378C77.9913 9.7108 78.0072 9.70085 78.0247 9.69464C78.0421 9.68844 78.0608 9.68613 78.0792 9.68788H80.5285C80.547 9.68613 80.5656 9.68844 80.5831 9.69464C80.6006 9.70085 80.6165 9.7108 80.6296 9.72378C80.6427 9.73676 80.6528 9.75244 80.659 9.76972C80.6653 9.78699 80.6676 9.80542 80.6659 9.8237V9.86897Z" fill="black" fill-opacity="0.85"/>
<path d="M84.7402 9.68799H86.9148C86.9148 9.68799 87.0178 9.68799 87.0522 9.8238L87.3498 11.0914C87.3576 11.1243 87.3767 11.1535 87.4038 11.1741C87.4309 11.1947 87.4644 11.2055 87.4985 11.2046C87.5317 11.2081 87.5653 11.2026 87.5956 11.1886C87.6258 11.1746 87.6516 11.1528 87.6702 11.1253C88.097 10.5494 88.6636 10.0889 89.3176 9.7863C89.9716 9.48369 90.6922 9.34869 91.4128 9.39373C92.2695 9.34748 93.1258 9.49232 93.9182 9.81753C94.7107 10.1427 95.4191 10.64 95.9909 11.2725C97.1155 12.6225 97.6981 14.3348 97.6276 16.0825V23.8578C97.6276 23.9483 97.6276 23.9936 97.4788 23.9936H95.041C95.0225 23.9953 95.0038 23.993 94.9864 23.9868C94.9689 23.9806 94.953 23.9707 94.9399 23.9577C94.9268 23.9447 94.9167 23.929 94.9105 23.9117C94.9042 23.8945 94.9018 23.876 94.9036 23.8578V16.0825C94.941 14.9944 94.6241 13.9232 93.9994 13.0267C93.6774 12.613 93.2573 12.2841 92.7762 12.0689C92.2952 11.8538 91.768 11.759 91.2411 11.7931C90.6964 11.7669 90.1531 11.8668 89.6543 12.0849C89.1556 12.303 88.7153 12.6332 88.3684 13.0493C87.6757 13.9051 87.3109 14.9753 87.3383 16.0712V23.8464C87.3401 23.8647 87.3377 23.8831 87.3315 23.9004C87.3252 23.9177 87.3151 23.9334 87.302 23.9464C87.2889 23.9593 87.273 23.9693 87.2556 23.9755C87.2381 23.9817 87.2194 23.984 87.201 23.9822H84.7517C84.7332 23.984 84.7146 23.9817 84.6971 23.9755C84.6796 23.9693 84.6638 23.9593 84.6506 23.9464C84.6375 23.9334 84.6275 23.9177 84.6212 23.9004C84.6149 23.8831 84.6126 23.8647 84.6143 23.8464V9.8238C84.6127 9.80653 84.6148 9.78911 84.6204 9.77268C84.626 9.75624 84.6351 9.74115 84.6469 9.72836C84.6588 9.71557 84.6732 9.70538 84.6893 9.69842C84.7053 9.69147 84.7227 9.68792 84.7402 9.68799Z" fill="black" fill-opacity="0.85"/>
<path d="M101.13 9.68799H103.282C103.282 9.68799 103.385 9.68799 103.419 9.8238L103.716 11.0914C103.724 11.1243 103.743 11.1535 103.771 11.1741C103.798 11.1947 103.831 11.2055 103.865 11.2046C103.898 11.2081 103.932 11.2026 103.962 11.1886C103.993 11.1746 104.018 11.1528 104.037 11.1253C104.464 10.5494 105.03 10.0889 105.684 9.7863C106.338 9.48369 107.059 9.34869 107.78 9.39373C108.636 9.34748 109.493 9.49232 110.285 9.81753C111.077 10.1427 111.786 10.64 112.358 11.2725C113.482 12.6225 114.065 14.3348 113.994 16.0825V23.8578C113.994 23.9483 113.994 23.9936 113.846 23.9936H111.419C111.401 23.9953 111.382 23.993 111.365 23.9868C111.347 23.9806 111.331 23.9707 111.318 23.9577C111.305 23.9447 111.295 23.929 111.289 23.9117C111.282 23.8945 111.28 23.876 111.282 23.8578V16.0825C111.319 14.9944 111.002 13.9232 110.378 13.0267C110.056 12.613 109.635 12.2841 109.154 12.0689C108.673 11.8538 108.146 11.759 107.619 11.7931C107.075 11.7669 106.531 11.8668 106.033 12.0849C105.534 12.303 105.093 12.6332 104.747 13.0493C104.054 13.9051 103.689 14.9753 103.716 16.0712V23.8464C103.718 23.8647 103.716 23.8831 103.71 23.9004C103.703 23.9177 103.693 23.9334 103.68 23.9464C103.667 23.9593 103.651 23.9693 103.634 23.9755C103.616 23.9817 103.598 23.984 103.579 23.9822H101.13C101.111 23.984 101.093 23.9817 101.075 23.9755C101.058 23.9693 101.042 23.9593 101.029 23.9464C101.016 23.9334 101.006 23.9177 100.999 23.9004C100.993 23.8831 100.991 23.8647 100.993 23.8464V9.8238C100.991 9.80553 100.993 9.7871 100.999 9.76983C101.006 9.75255 101.016 9.73686 101.029 9.72388C101.042 9.71091 101.058 9.70096 101.075 9.69475C101.093 9.68855 101.111 9.68624 101.13 9.68799Z" fill="black" fill-opacity="0.85"/>
</svg>
