<svg width="29" height="29" viewBox="0 0 29 29" fill="none" xmlns="http://www.w3.org/2000/svg">
<path d="M14.8827 0H0.587321C0.431554 0 0.282167 0.0617493 0.172022 0.171663C0.0618784 0.281578 0 0.430653 0 0.586095V28.4139C0 28.5693 0.0618784 28.7184 0.172022 28.8283C0.282167 28.9383 0.431554 29 0.587321 29H14.8827C18.6633 28.8927 22.253 27.3186 24.8891 24.6121C27.5252 21.9056 29 18.2801 29 14.5059C29 10.7316 27.5252 7.10608 24.8891 4.39961C22.253 1.69314 18.6633 0.119023 14.8827 0.0117222V0ZM16.2805 24.6277C14.1176 24.9992 11.8924 24.674 9.92698 23.6993C7.9616 22.7246 6.35811 21.1509 5.3487 19.2062C4.33929 17.2614 3.97636 15.0465 4.31245 12.8822C4.64854 10.7179 5.66622 8.71655 7.21812 7.16789C8.77002 5.61923 10.7756 4.60368 12.9444 4.26828C15.1132 3.93289 17.3328 4.29507 19.2816 5.30237C21.2304 6.30967 22.8073 7.90981 23.7841 9.87109C24.7609 11.8324 25.0867 14.053 24.7145 16.2114C24.3522 18.3119 23.3469 20.2488 21.8366 21.7559C20.3264 23.263 18.3854 24.2662 16.2805 24.6277Z" fill="#0062BA"/>
</svg>
