<svg width="1.1em" height="1.1em" viewBox="0 0 24 24" fill="none" xmlns="http://www.w3.org/2000/svg">
<path fill-rule="evenodd" clip-rule="evenodd" d="M12 2.25C9.37665 2.25 7.25 4.37665 7.25 7V9.25H7C6.0335 9.25 5.25 10.0335 5.25 11V20C5.25 20.4142 5.58579 20.75 6 20.75H18C18.4142 20.75 18.75 20.4142 18.75 20V11C18.75 10.0335 17.9665 9.25 17 9.25H16.75V7C16.75 4.37665 14.6234 2.25 12 2.25ZM12 3.75C10.2051 3.75 8.75 5.20507 8.75 7V9.25H15.25V7C15.25 5.20507 13.7949 3.75 12 3.75ZM6.75 11C6.75 10.8619 6.86193 10.75 7 10.75H17C17.1381 10.75 17.25 10.8619 17.25 11V19.25H6.75V11Z" fill="currentColor"/>
<path fill-rule="evenodd" clip-rule="evenodd" d="M11.1894 12.5C10.5178 12.5 9.97329 13.0596 9.97329 13.75C9.97329 14.4404 10.5178 15 11.1894 15C11.8611 15 12.4056 14.4404 12.4056 13.75C12.4056 13.0596 11.8611 12.5 11.1894 12.5ZM9.48683 13.75C9.48683 12.7835 10.2491 12 11.1894 12C12.1298 12 12.8921 12.7835 12.8921 13.75C12.8921 14.7165 12.1298 15.5 11.1894 15.5C10.2491 15.5 9.48683 14.7165 9.48683 13.75ZM11.1891 16.5C10.7375 16.5 10.3044 16.6844 9.98514 17.0126C9.66584 17.3407 9.48646 17.7859 9.48646 18.25C9.48646 18.3881 9.37756 18.5 9.24323 18.5C9.1089 18.5 9 18.3881 9 18.25C9 17.6533 9.23063 17.081 9.64116 16.659C10.0517 16.237 10.6085 16 11.1891 16C11.7696 16 12.3264 16.237 12.737 16.659C13.1475 17.081 13.3781 17.6533 13.3781 18.25C13.3781 18.3881 13.2692 18.5 13.1349 18.5C13.0006 18.5 12.8917 18.3881 12.8917 18.25C12.8917 17.7859 12.7123 17.3407 12.393 17.0126C12.0737 16.6844 11.6406 16.5 11.1891 16.5ZM13.5289 12.892C13.4002 12.8527 13.2647 12.928 13.2264 13.0603C13.1881 13.1927 13.2614 13.3319 13.3902 13.3713C13.7587 13.484 14.0271 13.8351 14.0271 14.25C14.0271 14.7563 13.6278 15.1667 13.1352 15.1667C13.0009 15.1667 12.892 15.2786 12.892 15.4167L12.892 15.75C12.892 15.8163 12.9176 15.8799 12.9632 15.9268C13.0089 15.9737 13.0707 16 13.1352 16C13.5008 16 13.8514 16.1493 14.1098 16.4149C14.3683 16.6806 14.5135 17.041 14.5135 17.4167C14.5135 17.5547 14.6224 17.6667 14.7568 17.6667C14.8911 17.6667 15 17.5547 15 17.4167C15 16.9083 14.8035 16.4208 14.4538 16.0614C14.2248 15.826 13.9424 15.6582 13.6358 15.5704C14.1495 15.3644 14.5135 14.8509 14.5135 14.25C14.5135 13.6079 14.0981 13.0662 13.5289 12.892Z" fill="currentColor"/>
</svg>
