<svg width="24" height="24" viewBox="0 0 24 24" fill="none" xmlns="http://www.w3.org/2000/svg">
<path fill-rule="evenodd" clip-rule="evenodd" d="M16.0648 8.4869L16.2697 7.47186L17.0763 7.56112L16.7557 9.15L16.5954 9.94443L14.1754 9.67663L14.3357 8.8822L15.3906 8.99894L14.0672 7.38793L14.7266 6.85785L16.0648 8.4869Z" fill="currentColor"/>
<path fill-rule="evenodd" clip-rule="evenodd" d="M7.97756 15.4678L7.70796 16.4679L6.90863 16.3281L7.33064 14.7626L7.54165 13.9799L9.93962 14.3992L9.72862 15.182L8.68328 14.9992L9.90055 16.6901L9.20845 17.1777L7.97756 15.4678Z" fill="currentColor"/>
<path fill-rule="evenodd" clip-rule="evenodd" d="M12 12.4828C12 12.0506 12.3504 11.7002 12.7826 11.7002H23.2174C23.6496 11.7002 24 12.0506 24 12.4828V19.7872C24 20.2194 23.6496 20.5698 23.2174 20.5698H18.7827V22.3959H22.1739V23.9611H13.8261V22.3959H17.2174V20.5698H12.7826C12.3504 20.5698 12 20.2194 12 19.7872V12.4828ZM13.5652 13.2654V19.0045H22.4348V13.2654H13.5652Z" fill="currentColor"/>
<path fill-rule="evenodd" clip-rule="evenodd" d="M0 0.782609C0 0.350386 0.350386 0 0.782609 0H11.2174C11.6496 0 12 0.350386 12 0.782609V8.08696C12 8.51918 11.6496 8.86957 11.2174 8.86957H6.78267V10.6957H10.1739V12.2609H1.82607V10.6957H5.21745V8.86957H0.782609C0.350386 8.86957 0 8.51918 0 8.08696V0.782609ZM1.56522 1.56522V7.30435H10.4348V1.56522H1.56522Z" fill="currentColor"/>
</svg>
