<svg width="20" height="18" viewBox="0 0 20 18" fill="none" xmlns="http://www.w3.org/2000/svg">
<path fill-rule="evenodd" clip-rule="evenodd" d="M5.85955 1.82023V15.067C5.85955 15.4609 5.78197 15.8366 5.64129 16.1798H14.377C16.4783 16.1798 18.1818 14.4744 18.1818 12.3708V1.82023H5.85955ZM2.92897 17.9996L14.377 18C17.4825 18 20 15.4797 20 12.3708V0H4.94921V0.00137546H4.04133V2.02226H0L0.000734114 15.0671C0.000825269 16.6863 1.3117 17.999 2.92897 17.9996ZM4.04133 3.84249H1.81832L1.81895 15.067C1.81899 15.6814 2.31647 16.1794 2.93014 16.1794C3.54383 16.1794 4.04133 15.6813 4.04133 15.067V3.84249ZM8.08148 4.04456H15.9604V9.90973H8.08148V4.04456ZM9.8997 5.86479V8.0895H14.1422V5.86479H9.8997ZM16.0603 13.9545H7.97938V12.1343H16.0603V13.9545Z" fill="#ffffff"/>
</svg>
