<svg width="36" height="36" viewBox="0 0 36 36" fill="none" xmlns="http://www.w3.org/2000/svg">
<mask id="path-1-inside-1_12812_85717" fill="white">
<path fill-rule="evenodd" clip-rule="evenodd" d="M5.25 10.5C5.25 10.0858 5.58579 9.75 6 9.75H30C30.4142 9.75 30.75 10.0858 30.75 10.5C30.75 10.9142 30.4142 11.25 30 11.25L6 11.25C5.58579 11.25 5.25 10.9142 5.25 10.5ZM9.75 18C9.75 17.5858 10.0858 17.25 10.5 17.25H25.5C25.9142 17.25 26.25 17.5858 26.25 18C26.25 18.4142 25.9142 18.75 25.5 18.75H10.5C10.0858 18.75 9.75 18.4142 9.75 18ZM15 24.75C14.5858 24.75 14.25 25.0858 14.25 25.5C14.25 25.9142 14.5858 26.25 15 26.25H21C21.4142 26.25 21.75 25.9142 21.75 25.5C21.75 25.0858 21.4142 24.75 21 24.75H15Z"/>
</mask>
<path fill-rule="evenodd" clip-rule="evenodd" d="M5.25 10.5C5.25 10.0858 5.58579 9.75 6 9.75H30C30.4142 9.75 30.75 10.0858 30.75 10.5C30.75 10.9142 30.4142 11.25 30 11.25L6 11.25C5.58579 11.25 5.25 10.9142 5.25 10.5ZM9.75 18C9.75 17.5858 10.0858 17.25 10.5 17.25H25.5C25.9142 17.25 26.25 17.5858 26.25 18C26.25 18.4142 25.9142 18.75 25.5 18.75H10.5C10.0858 18.75 9.75 18.4142 9.75 18ZM15 24.75C14.5858 24.75 14.25 25.0858 14.25 25.5C14.25 25.9142 14.5858 26.25 15 26.25H21C21.4142 26.25 21.75 25.9142 21.75 25.5C21.75 25.0858 21.4142 24.75 21 24.75H15Z" fill="#262626"/>
<path d="M30 11.25V10.25H30L30 11.25ZM6 11.25V12.25H6L6 11.25ZM6 8.75C5.0335 8.75 4.25 9.5335 4.25 10.5H6.25C6.25 10.6381 6.13807 10.75 6 10.75V8.75ZM30 8.75H6V10.75H30V8.75ZM31.75 10.5C31.75 9.5335 30.9665 8.75 30 8.75V10.75C29.8619 10.75 29.75 10.6381 29.75 10.5H31.75ZM30 12.25C30.9665 12.25 31.75 11.4665 31.75 10.5H29.75C29.75 10.3619 29.8619 10.25 30 10.25V12.25ZM6 12.25L30 12.25L30 10.25L6 10.25L6 12.25ZM4.25 10.5C4.25 11.4665 5.0335 12.25 6 12.25V10.25C6.13807 10.25 6.25 10.3619 6.25 10.5H4.25ZM10.5 16.25C9.5335 16.25 8.75 17.0335 8.75 18H10.75C10.75 18.1381 10.6381 18.25 10.5 18.25V16.25ZM25.5 16.25H10.5V18.25H25.5V16.25ZM27.25 18C27.25 17.0335 26.4665 16.25 25.5 16.25V18.25C25.3619 18.25 25.25 18.1381 25.25 18H27.25ZM25.5 19.75C26.4665 19.75 27.25 18.9665 27.25 18H25.25C25.25 17.8619 25.3619 17.75 25.5 17.75V19.75ZM10.5 19.75H25.5V17.75H10.5V19.75ZM8.75 18C8.75 18.9665 9.5335 19.75 10.5 19.75V17.75C10.6381 17.75 10.75 17.8619 10.75 18H8.75ZM15.25 25.5C15.25 25.6381 15.1381 25.75 15 25.75V23.75C14.0335 23.75 13.25 24.5335 13.25 25.5H15.25ZM15 25.25C15.1381 25.25 15.25 25.3619 15.25 25.5H13.25C13.25 26.4665 14.0335 27.25 15 27.25V25.25ZM21 25.25H15V27.25H21V25.25ZM20.75 25.5C20.75 25.3619 20.8619 25.25 21 25.25V27.25C21.9665 27.25 22.75 26.4665 22.75 25.5H20.75ZM21 25.75C20.8619 25.75 20.75 25.6381 20.75 25.5H22.75C22.75 24.5335 21.9665 23.75 21 23.75V25.75ZM15 25.75H21V23.75H15V25.75Z" fill="black" mask="url(#path-1-inside-1_12812_85717)"/>
</svg>
